<?xml version="1.0" encoding="utf-8"?>
<!-- Generator: Adobe Illustrator 22.0.0, SVG Export Plug-In . SVG Version: 6.00 Build 0)  -->
<svg version="1.1" id="Calque_1" xmlns="http://www.w3.org/2000/svg" xmlns:xlink="http://www.w3.org/1999/xlink" x="0px" y="0px"
	 viewBox="0 0 432 432" style="enable-background:new 0 0 432 432;" xml:space="preserve">
<style type="text/css">
	.st0{fill:#BA874D;}
	.st1{fill:#008D36;}
	.st2{fill:#BE1622;}
	.st3{fill:#F39200;}
	.st4{fill:#634E42;}
	.st5{fill:#FFFFFF;}
	.st6{fill:#9B191E;}
	.st7{fill:#E99F2E;}
	.st8{fill:#D4870C;}
	.st9{fill:#9E191F;}
	.st10{fill:#C91517;}
	.st11{fill:#BE1919;}
	.st12{fill:#E6332A;}
	.st13{fill:#005F2D;}
	.st14{fill:#008639;}
	.st15{fill:#3AAA35;}
	.st16{fill:#00983B;}
	.st17{fill:#A81A17;}
	.st18{fill:#C7D6E1;}
	.st19{fill:#2CA949;}
	.st20{fill:#68B659;}
	.st21{fill:#CE8837;}
	.st22{fill:#8FAFD3;}
	.st23{fill:#878787;}
	.st24{fill:#936037;}
	.st25{fill:#A86D3E;}
	.st26{fill:#432918;}
	.st27{fill:#F6F6F6;}
	.st28{fill:#DB0D15;}
	.st29{fill:#683C11;}
	.st30{fill:#1D71B8;}
	.st31{fill:#29235C;}
	.st32{fill:#575756;}
	.st33{fill:#00A19A;}
	.st34{fill:#EDEDED;}
	.st35{fill:#2C8AB8;}
	.st36{fill:#B2B2B2;}
	.st37{fill:#C6C6C6;}
	.st38{fill:#2FAC66;}
	.st39{fill:#999999;}
	.st40{fill:#E68787;}
	.st41{fill:#95C11F;}
	.st42{fill:#F8C3C4;}
	.st43{fill:#EA5055;}
	.st44{fill:#C69B6A;}
	.st45{fill:#C29560;}
	.st46{fill:#CBBBA0;}
	.st47{fill:#CBB0A0;}
	.st48{fill:#EF7D81;}
	.st49{fill:#DCC2A4;}
	.st50{fill:#AE7A3E;}
	.st51{fill:#006633;}
	.st52{fill:#ABD194;}
	.st53{fill:#57B144;}
	.st54{fill:#B08048;}
	.st55{fill:#FDD5A8;}
	.st56{fill:#D41A27;}
	.st57{fill:#7B6A58;}
	.st58{fill:#FBDDDE;}
	.st59{fill:#D71927;}
	.st60{fill:#AE1921;}
	.st61{fill:#C49064;}
	.st62{fill:#D71016;}
	.st63{fill:#C11717;}
	.st64{fill:#E30613;}
	.st65{fill:#D61116;}
	.st66{fill:#CB1518;}
	.st67{fill:#BB1918;}
	.st68{fill:#A1191F;}
	.st69{fill:#4D3D34;}
	.st70{fill:#C8A5CE;}
	.st71{fill:#951B81;}
	.st72{fill:#2985BB;}
	.st73{fill:#448DC0;}
	.st74{fill:#007BB4;}
	.st75{fill:#4A94D0;}
	.st76{fill:#3A8FCD;}
	.st77{fill:#258ACA;}
	.st78{fill:#739AC0;}
	.st79{fill:#B11918;}
	.st80{fill:#E6C6A4;}
	.st81{fill:#F1E0CE;}
	.st82{fill:#42352C;}
	.st83{fill:#A08A7E;}
	.st84{fill:#B9B8B9;}
	.st85{fill:#A3A2A3;}
	.st86{fill:#D9D8D9;}
	.st87{fill:#CDCBCC;}
	.st88{fill:#80A1C5;}
	.st89{fill:#6391BA;}
</style>
<path d="M273,331.4c-3.6-0.1-7.2-0.5-10.8-1.1c-5.1-0.8-10-2.4-14.8-4.3c-9-3.6-17.2-8.7-24.9-14.6c-4.7-3.6-9.3-7.3-14-10.8
	c-5.6-4.2-11.7-7.6-18.5-9.6c-4.4-1.3-8.8-1.8-13.3-1.4c-11,0.9-20.8,4.7-29.6,11.4c-5.9,4.5-10.8,9.9-14.3,16.4
	c-2.2,4.1-3.7,8.4-4.2,13c-1,7.6,1.2,14.4,5.6,20.6c1.9,2.6,4.1,4.8,6.8,6.5c3.1,2,6.6,3,10.3,3.3c6.1,0.4,12-0.5,17.5-3
	c7.5-3.4,11.7-9.5,13.3-17.6c0.7-3.8,0.4-7.6-0.3-11.3c-0.6-3.5-2.5-6.3-5.1-8.7c-2.2-2.1-4.8-3.5-7.8-4.2
	c-4.1-0.9-7.4,0.2-10.1,3.3c-3.2,3.7-4.7,8-4.3,12.9c0.2,1.9,0.9,3.6,2,5.1c0.2,0.3,0.5,0.5,0.8,0.6c0.4,0.1,0.8,0.3,1.1,0.6
	c0.8,0.7,0.7,1.6-0.2,2.2c-1,0.7-2.2,0.7-3.3,0.3c-1.1-0.3-2-1-2.7-1.9c-1.1-1.5-1.6-3.2-1.9-4.9c-1-6,2.2-14.7,9.2-18.6
	c2.7-1.5,5.6-1.9,8.7-1.5c5.9,0.8,10.2,4.1,13.9,8.6c2.7,3.2,4.5,6.9,5.2,11.1c0.9,5.8-0.1,11.2-2.8,16.4c-3.9,7.3-9.9,11.5-18,13
	c-3.3,0.6-6.7,1-10,0.9c-3.5-0.1-7-0.5-10.4-1.6c-5.2-1.6-9.3-4.7-12.7-8.9c-3.4-4.3-5.8-9.2-6.7-14.7c-0.6-3.3-0.6-6.6,0.1-9.9
	c0.8-4.1,1.8-8.2,3.5-12c2.5-5.7,5.8-11,9.6-16c3.3-4.4,7.2-8.2,11.7-11.3c4.1-2.9,8.4-5.5,13-7.6c3.9-1.8,8.1-2.8,12.4-3.4
	c2.1-0.3,4.2-0.4,6.3-0.5c4.8-0.2,9.5,0.6,14,2c4.3,1.3,8.5,2.9,12.6,4.7c4.9,2.1,9.2,5.1,13.4,8.4c5.1,4,10.2,8.2,15.2,12.3
	c4.8,4,10.1,7.5,15.6,10.5c2,1.1,3.9,2.2,5.9,3.3c4.6,2.4,9.5,4,14.5,5.1c2.6,0.6,5.2,0.9,7.9,1.1c1.1,0.1,2.1,0.1,3.2,0.2
	c1.9,0.1,3.7-0.3,5.5-0.8c3.4-1,6.6-2.5,9.8-4.2c0.6-0.3,1.1-0.7,1.7-1.1c4.4-3,7.4-7.1,9.6-11.8c1.5-3,2.5-6.2,2.9-9.6
	c0.6-5.3-0.1-10.3-2-15.2c-2.5-6.4-6.6-11.5-12.3-15.4c-2.9-2-6.2-3.3-9.7-3.8c-1.9-0.3-3.9,0-5.8,0.3c-3.4,0.6-6.3,2-8.8,4.3
	c-2.1,1.9-3.7,4.3-4.5,7c-1.1,3.6-1.5,7.2-0.9,10.9c0.2,1,0.5,1.9,0.8,2.8c1.1,2.9,3.1,4.8,6.1,5.7c1.9,0.6,3.6,0.4,5.2-0.7
	c2.6-1.8,3.9-4.4,4-7.5c0-1.2-0.6-2.2-1.4-2.9c-1.3-1-3-1-4.1,0.7c-0.3,0.5-0.5,1.2-0.6,1.8c-0.4,1.4-1.5,1.8-2.7,1.1
	c-1-0.6-1.5-1.5-1.4-2.6c0.3-2.7,2.2-4.5,4.9-4.4c1.8,0,3.5,0.6,4.9,1.6c2.5,1.9,3.7,4.4,3.1,7.6c-0.3,2-0.9,3.9-2.1,5.5
	c-2.5,3.4-5.8,4.9-10.1,3.8c-5.3-1.3-8.8-4.6-10.5-9.6c-2.4-6.8-1.7-13.5,2.1-19.7c2.6-4.3,6.7-6.7,11.5-7.8
	c2.2-0.5,4.4-0.7,6.6-0.8c4.2-0.1,8.2,1.1,11.9,3c4.6,2.3,8.3,5.7,11.4,9.8c3.8,4.9,6.2,10.4,7.2,16.6c1.1,6.9,0,13.4-3.3,19.5
	c-5.7,10.5-14.4,17.4-26,20.4c-2.5,0.6-5,0.9-7.6,1.1C278.2,331.4,275.6,331.5,273,331.4z M139,305.7
	C139,305.7,139.1,305.7,139,305.7c0.2-0.1,0.4-0.3,0.6-0.5c3.6-3.6,7.5-6.7,11.8-9.4c7.9-4.8,16.4-7.7,25.7-8.4
	c4.1-0.3,8.2,0.2,12.1,1.3c7.6,2,14.4,5.7,20.7,10.4c4.5,3.4,8.9,7,13.3,10.6c6.7,5.3,13.9,9.8,21.7,13.3c8.2,3.7,16.8,5.8,25.9,6.2
	c5.2,0.2,10.3,0,15.4-1c0.5-0.1,1.1-0.1,1.6-0.5c-4.5,0.1-8.9-0.3-13.2-1.3c-5.4-1.2-10.7-2.9-15.7-5.6c-2-1.1-4-2.2-6-3.3
	c-4.9-2.7-9.6-6-14.1-9.3c-2.7-2-5.1-4.4-7.8-6.5c-3.9-3.1-7.9-6.2-11.8-9.3c-3-2.4-6.3-4.3-9.7-5.8c-4.2-1.9-8.4-3.4-12.7-4.8
	c-4.5-1.4-9-2.1-13.7-1.9c-1.7,0.1-3.4,0.2-5,0.4c-3.5,0.4-7,1-10.3,2.3c-5.1,2-9.9,4.8-14.5,7.9c-1.9,1.3-3.8,2.8-5.5,4.3
	c-3.5,3.1-6.2,6.8-8.8,10.7C139,305.5,138.9,305.6,139,305.7z"/>
<path d="M95,179.5c1.1,2.8,2.6,5.4,4.5,7.6c3.9,4.6,8.8,7.6,14.3,9.8c4,1.5,8.1,2.4,12.4,2.2c5.2-0.2,10.2-1,15.1-2.8
	c4.6-1.7,8.1-4.7,10.5-8.9c2.1-3.6,3.3-7.5,4-11.6c0.5-3.1,0.4-6.1-0.4-9.1c-0.8-2.9-2.5-5-5.3-6.1c-0.7-0.3-1.4-0.4-2.1-0.3
	c-1.5,0.1-2.3,1.2-1.9,2.6c0.2,0.8,0.4,1.7,0.7,2.5c0.1,0.4,0.3,0.6,0.8,0.5c0.1,0,0.3-0.1,0.4-0.1c1.5-0.1,2.4,1.2,1.7,2.5
	c-0.6,1.2-1.6,1.6-2.8,1.6c-2.7,0-5.2-2.5-5.4-5.2c0-0.7,0.1-1.3,0.4-1.9c1.5-3,4.6-4.9,8.3-3.7c3.2,1,5.6,3,6.9,6.2
	c1.2,2.7,1.7,5.6,1.6,8.6c-0.2,5.4-1.6,10.6-4.1,15.5c-2.6,5.2-6.8,8.7-12.1,10.8c-3.5,1.4-7.2,2.4-11,2.8c-3.2,0.4-6.5,0.5-9.7,0.1
	c-6.5-0.8-12.4-3.1-17.9-6.6c-3.3-2.1-6.3-4.6-8.8-7.6c-2.1-2.5-3.8-5.3-5-8.4c-0.3-0.7-0.7-0.9-1.3-0.9c-9-0.7-16.4-4.6-22.5-11.3
	c-6.4-7.1-10.1-15.4-11.5-24.7c-1.9-12.5-0.1-24.6,5-36.1c1.2-2.7,2.7-5.2,4.4-7.6c2.9-4.2,6.7-7.5,11.1-9.9
	c5.8-3.2,12-5.1,18.6-5.9c4.5-0.6,9.1-0.7,13.6-0.3c7.7,0.7,15.3,2.2,22.5,5.1c3.8,1.5,7.4,3.4,11,5.3c4.3,2.3,8.7,4.3,13.4,5.9
	c2.6,0.9,5.3,1.2,7.9,1.5c3.3,0.3,6-1,8.6-3c1.5-1.2,2.7-2.7,3.7-4.4c2.3-3.9,3.5-8.2,3.5-12.7c0-2.2-0.6-4.4-1.1-6.5
	c-0.3-1.4-0.7-2.8-1-4.1c-0.1-0.5-0.1-0.9,0-1.4c0.3-0.8,0.9-1.2,1.8-1c0.9,0.2,1.5,0.7,1.9,1.4c0.5,0.7,0.8,1.6,1,2.5
	c0.6,2.6,1.2,5.1,1.6,7.7c1.1,8.6-1.7,15.6-8.7,20.8c-3.2,2.4-6.8,3.4-10.8,3c-4-0.4-7.9-1.3-11.7-2.8c-3.9-1.6-7.6-3.4-11.3-5.4
	c-4.2-2.2-8.4-4.3-12.8-5.9c-4.5-1.6-9.2-2.6-13.9-3.3c-4.1-0.6-8.2-0.7-12.3-0.5c-7.5,0.4-14.6,2.3-21.2,6.1
	c-4.4,2.5-7.8,6-10.7,10.1c-4.2,6.2-7,13-8.5,20.4c-1,4.9-1.5,9.8-1.3,14.8c0.2,6.5,1.4,12.8,4.1,18.7c2.8,6.1,6.8,11.3,12.4,15.2
	c3.7,2.6,7.8,4.5,12.2,5.5c0.1,0,0.3,0.1,0.4,0.1c0.1,0,0.1,0,0.3-0.1c-0.3-1.1-0.5-2.2-0.8-3.3c-0.8-4-1.1-8-0.3-12
	c1.3-6.2,4.6-10.9,10.6-13.5c4.5-1.9,8.8,0,11.1,3.6c1.1,1.7,1.7,3.6,1.8,5.6c0.3,7.9-2.5,14.4-8.6,19.5c-1.9,1.6-4.1,2.5-6.5,2.9
	C95.6,179.3,95.4,179.4,95,179.5z M92.3,164.4c-0.1,4.3,0.4,7.7,1.3,11.1c0.4,1.6,0.5,1.6,2.2,1.3c2.8-0.5,5.2-1.9,7.1-4.1
	c4.2-4.8,6.3-10.4,5.9-16.9c-0.1-1.9-0.8-3.7-2.1-5.3c-1.6-2-4.5-3-7.4-1.6c-3.3,1.6-5.3,4.2-6.2,7.7
	C92.5,159.5,92.4,162.4,92.3,164.4z"/>
<path d="M159.9,231.3c0.1-0.4-0.1-0.7-0.2-1c-1.5-3.7-2.3-7.6-2.7-11.6c-0.3-2.6-0.4-5.2-0.4-7.8c0.4-10.4,3.9-19.5,11.2-27
	c3.3-3.4,7.1-6.1,11.7-7.6c5.1-1.7,10.1-1.5,14.8,1.2c7.3,4.1,12.3,10.2,14.5,18.5c1.1,4.1,0.5,8-1.1,11.9c-0.9,2.1-1.9,4.1-3.6,5.8
	c-4.9,4.9-13.2,4-16.9-1.8c-1.4-2.2-2.1-4.6-2.3-7.1c-0.2-2.4-0.1-4.9,0.5-7.3c0.6-2.1,1.6-4,3.2-5.5c2.3-2.1,4.9-2.2,7.3-0.2
	c1.4,1.2,2.3,2.7,2.8,4.5c0.3,1.1-0.1,1.9-1.3,2.3c-1.6,0.5-3.3-0.3-4-1.8c-0.4-0.9-0.7-1.8-1.1-2.7c-0.6-1.3-1-1.4-2.1-0.4
	c-0.8,0.7-1.4,1.5-1.8,2.4c-0.6,1.2-0.9,2.5-1.1,3.9c-0.4,3.2-0.1,6.3,1.3,9.3c0.8,1.7,2,3,3.7,3.8c1.7,0.8,3.4,0.7,5.1-0.3
	c1.3-0.8,2.4-1.8,3.2-3.1c1.9-3.1,3.1-6.4,3.4-10c0.1-2.1-0.4-4.2-1.1-6.2c-2.3-5.9-6.3-10.2-11.7-13.3c-2-1.1-4.2-1.7-6.4-1.6
	c-2.5,0.1-4.9,0.7-7.2,1.8c-4.4,2.1-7.9,5.2-10.9,9c-3.8,4.9-6,10.4-6.9,16.5c-1.6,11,0.4,21.3,5.9,31c0.3,0.5,0.5,0.9,0.9,1.3
	c5.9,6.2,12.1,12.2,18.7,17.7c7.8,6.5,16.3,11.7,25.3,16c2.6,1.2,5.4,1.9,8.3,2.2c0.9,0.1,1.8,0,2.7-0.4c0.4-0.2,0.8-0.3,1.2-0.1
	c0.5,0.3,0.5,0.7,0,1c-1.6,1-3.3,1.6-5.3,1.4c-3.3-0.3-6.4-1.3-9.3-2.8c-9.1-4.4-17.6-9.9-25.3-16.5c-5.2-4.4-10.1-9-14.8-14
	c-0.4-0.4-0.9-0.8-1.3-1.2c-0.8-0.7-1.6-1.5-2.3-2.3c-0.2-0.3-0.4-0.6-0.7-0.8c-5.2-5.4-10.5-10.7-16.4-15.4
	c-6.7-5.3-14-9.2-22.3-11.2c-3.7-0.9-7.5-1.5-11.3-1.4c-7.6,0.2-14.9,1.8-21.4,6.1c-8.9,5.9-14.9,13.9-17,24.5
	c-1.5,7.7-0.6,15.1,2.6,22.2c1.6,3.5,3.5,6.8,6.1,9.6c4.3,4.6,9.5,7.5,15.7,8.4c3.9,0.5,7.8,0.3,11.4-1.4c3.5-1.6,5.9-4.1,6.9-7.9
	c0.2-0.8,0.3-1.6,0.3-2.4c0-0.6-0.1-1.1-0.4-1.6c-0.1-0.3-0.3-0.6-0.6-0.6c-0.4,0-0.7,0.3-0.7,0.7c-0.2,0.9-0.4,1.8-0.5,2.7
	c-0.1,0.3-0.1,0.6-0.2,0.9c-0.2,0.7-0.7,1.2-1.4,1.4c-1.2,0.4-2.2,0-3-0.8c-0.8-0.7-1-1.6-0.8-2.7c0.5-2.2,1.6-3.9,3.9-4.6
	c3.2-1.1,6.3,0.9,6.7,4.3c0.3,2.9-0.4,5.6-1.9,8c-2.4,4-6.1,6.3-10.5,7.4c-6.8,1.7-13.2,0.6-19.4-2.5c-6.1-3.1-10.7-7.9-14.1-13.8
	c-2.7-4.6-4.7-9.5-5.5-14.9c-2.1-14.3,2.1-26.4,13.3-35.8c5.5-4.6,11.9-7.3,18.8-8.7c3.4-0.7,6.9-1.1,10.4-1.1
	c6.4,0,12.6,1.3,18.6,3.4c7.1,2.6,13.5,6.4,19.3,11.2c3.1,2.5,6,5.2,8.8,8C159.1,230.6,159.5,230.9,159.9,231.3z"/>
<path d="M196.7,104.9c5.4,0,10,0.9,14.5,2.2c4.9,1.4,9.6,3.3,14.3,5.3c6,2.6,12.1,5.2,18.3,7.3c3.9,1.3,7.8,2.2,11.8,2.7
	c1.5,0.2,3,0.3,4.5,0.2c0.7,0,0.7,0,0.7-0.7c-0.1-2.5-0.1-4.9,0.4-7.4c0.9-5.4,2.9-10.4,6.4-14.7c2.5-3,5.5-5.2,9.3-6.2
	c5.8-1.4,11,0,15.3,3.9c3.5,3.1,4.2,7.6,2.3,11.9c-1.2,2.6-3.1,4.6-5.4,6.4c-3.3,2.6-7.1,4.2-11.1,5.6c-3.7,1.3-7.6,2.2-11.5,2.7
	c-0.5,0.1-0.6,0.3-0.6,0.8c0.9,6.8,3.9,12.7,8.6,17.7c4.6,4.8,10.2,7.9,16.4,10c3.1,1,6.4,1.6,9.7,1.9c7.8,0.5,15.4-0.9,22.5-4.1
	c6.9-3.2,11.5-8.6,14.4-15.5c1.5-3.5,2.3-7.1,2.1-10.9c-0.2-4.6-1.6-8.8-4.4-12.4c-2.9-3.7-6.7-5.6-11.5-5.6c-2.2,0-4.3,0.4-6.2,1.5
	c-1.2,0.7-2.3,1.7-3.3,2.7c-2.5,2.7-4.2,5.7-4.6,9.4c-0.2,1.9,0.1,3.7,1.1,5.3c0.2,0.3,0.4,0.7,0.7,0.9c0.9,0.9,1.3,1,2.3-0.1
	c0.2-0.3,0.3-0.6,0.5-1c0.4-0.8,1.4-1,2.2-0.7c0.9,0.4,1.4,1.4,1.2,2.1c-0.5,1.7-2.7,3.6-4.4,3.8c-0.9,0.1-1.7-0.1-2.5-0.4
	c-3.3-1.2-5.3-3.7-6-7.1c-1.2-5.9,0.5-10.9,5.3-14.8c2-1.6,4.1-3,6.6-3.7c8.2-2.2,17.5,0.9,21.9,9.6c3.7,7.3,3.9,14.7,0.7,22.2
	c-3.7,8.5-9.9,14.4-18.6,17.8c-4.1,1.6-8.4,2.7-12.8,3.2c-2.8,0.4-5.7,0.5-8.5,0.3c-9.5-0.7-18.2-3.5-25.7-9.5
	c-7-5.7-11.1-13.2-12.7-22c-0.1-0.8-0.1-0.9-0.8-0.9c-6.5-0.1-12.7-1.6-18.8-3.7c-5.6-1.9-11-4.3-16.5-6.7c-4.6-2-9.2-4-14-5.3
	c-3.3-0.9-6.7-1.7-10.1-2.1c-5.4-0.5-10.6,0.1-15.7,2c-10.1,3.7-17.6,10.2-22.3,20c-2,4.2-3,8.7-3.1,13.4c0,8.2,3.3,15,9.3,20.4
	c2.2,2,4.6,3.7,7.4,4.9c1.8,0.8,3.7,1.1,5.7,1.3c6.5,0.5,12.2-1.8,17.4-5.4c3.8-2.7,6.9-6.1,8.7-10.4c2.1-4.7,2.5-9.6,1.5-14.7
	c-0.5-2.7-1.3-5.4-2.9-7.7c-0.3-0.5-0.7-1-1.1-1.4c-0.4-0.4-0.7-0.5-1.2-0.2c-0.8,0.4-1.5,0.9-2,1.6c-1.2,1.9-3.9,1.2-4.9-0.1
	c-0.6-0.8-0.7-1.5-0.1-2.4c2.8-4,8.4-5.4,12.1-0.5c2,2.8,3.4,5.9,3.9,9.3c0.3,2.2,0.7,4.4,0.6,6.6c-0.1,5.2-1.6,9.9-4.7,14.1
	c-5,6.5-11.5,10.8-19.6,12.5c-7.1,1.5-13.7,0.3-19.6-4c-5.7-4.2-9.8-9.5-11.8-16.4c-1-3.5-1.2-7-0.8-10.6
	c1.4-11.5,7.4-20.3,16.7-26.8c4.9-3.4,10.3-5.6,16.1-6.7C193.1,105.1,195.3,105,196.7,104.9z M265.9,120.5c0,0.4,0,0.8,0,1.2
	c0,0.5,0.2,0.5,0.6,0.5c5.2-0.8,10.2-2.2,15-4.3c2.9-1.3,5.6-2.9,7.8-5.1c1.7-1.6,3-3.4,3.7-5.6c1.1-3.5,0.1-6.8-2.9-8.8
	c-3.6-2.4-7.5-2.8-11.4-0.9c-2.3,1.1-4.1,2.8-5.7,4.6C268.4,107.3,266.3,113.6,265.9,120.5z"/>
<path d="M288.7,202.7c-0.4,0-0.8,0.2-1.2,0.4c-6.4,2.5-13,4.4-19.7,5.6c-3.9,0.7-7.8,1.1-11.7,1c-4.1-0.1-8.1-0.7-11.9-2.3
	c-2.8-1.2-5.2-2.9-7.1-5.4c-1.2-1.7-2.1-3.6-2.3-5.7c-0.2-2.3,0.5-4.4,1.8-6.4c1.5-2.2,3.4-3.9,5.6-5.3c2.7-1.7,5.7-2.9,8.8-3.6
	c4-1,8-1.5,12.1-1.3c5,0.3,9.8,1.5,14.3,3.8c2.7,1.3,4.9,3.2,7,5.3c2.6,2.7,4.8,5.7,6.5,9c0.4,0.7,0.4,0.7,1.1,0.4
	c6.5-2.9,12.7-6.4,18.7-10.3c5.6-3.7,10.9-7.7,16-11.9c4.3-3.5,8.9-6.4,13.9-8.6c3-1.3,6.2-2.1,9.5-2.5c5.1-0.6,9.8,0.4,14.5,2.4
	c5.1,2.2,9.2,5.5,11.8,10.5c0.3,0.6,0.7,1.3,1,1.9c0.4,0.8,0.5,1.6,0.4,2.5c-0.3,1.4-1.5,1.9-2.7,1.1c-0.6-0.4-1-0.9-1.4-1.5
	c-0.5-0.7-0.9-1.5-1.4-2.2c-1.1-1.7-2.3-3.1-4-4.2c-2.6-1.8-5.3-3.6-8.3-4.8c-5.9-2.5-11.8-2.6-17.7-0.5c-4.7,1.7-9,4.3-13,7.3
	c-3.1,2.4-6.1,5-9.2,7.3c-6.5,4.7-13.1,9.3-20.2,12.9c-2.3,1.2-4.6,2.2-6.9,3.2c-0.7,0.3-0.7,0.3-0.5,1.1c1,3.5,1.5,7.1,1.4,10.7
	c-0.1,4.1-1.2,8.1-2.8,11.9c-1.8,4-4.2,7.6-7,11c-6.2,7.3-13.6,13-22.5,16.8c-3.1,1.3-6.3,2.3-9.6,2.8c-3.3,0.5-6.6,0.5-10,0.1
	c-3.5-0.4-6.9-1.1-10.2-2.2c-4.7-1.6-9-3.9-12.6-7.4c-3.9-3.8-6.6-8.2-7.7-13.6c-0.9-4.6,0.2-8.6,3.2-12.2c1.5-1.7,3.2-3.1,5.2-4.3
	c2.3-1.3,4.7-1.8,7.3-1.3c3,0.5,5.4,2.3,6.7,5c1.9,3.9,1.6,7.8-1,11.4c-0.4,0.5-0.8,1-1.3,1.4c-1.9,1.6-3.9,1.6-5.9,0.2
	c-1.2-0.9-2-2.1-2.5-3.5c-0.1-0.4-0.2-0.9-0.1-1.4c0.2-1.1,1.2-1.4,2-0.7c0.3,0.3,0.5,0.6,0.7,0.9c0.5,0.9,0.6,0.9,1.5,0.5
	c2.6-1.3,3.9-4.1,3.1-7c-0.3-1.1-0.8-2.2-1.5-3.1c-0.8-1.1-2-1.7-3.4-1.8c-2-0.1-3.8,0.3-5.4,1.4c-1.3,0.8-2.5,1.8-3.5,2.9
	c-3.2,3.6-4.2,7.7-2.8,12.3c2.1,6.9,6.5,11.9,13,15.1c3.2,1.6,6.6,2.4,10.1,2.8c5.8,0.7,11.4-0.2,17-1.8c7.2-2,13.9-5.1,19.8-9.7
	c5-3.9,9.2-8.4,12.3-13.9c2.5-4.5,3.9-9.3,3.8-14.5c0-2.6-0.5-5.1-1.2-7.6C288.9,203.1,288.8,202.9,288.7,202.7z M255.9,207.6
	c2.1,0,4.3-0.2,6.4-0.5c3.3-0.4,6.6-1.1,9.9-1.9c5-1.3,9.9-2.9,14.7-4.8c0.8-0.3,0.8-0.3,0.4-1c-1.9-3.4-4.2-6.6-7.2-9.1
	c-6.2-5.1-13.4-7.5-21.4-7.4c-2.3,0-4.7,0.3-7,0.7c-3.4,0.7-6.5,1.8-9.3,3.8c-1.8,1.3-3.3,2.7-4.4,4.6c-0.7,1.1-1.1,2.3-1.1,3.6
	c-0.1,2.3,0.7,4.2,2.1,5.9c1.6,2,3.7,3.3,6,4.2C248.5,207.1,252.2,207.5,255.9,207.6z"/>
</svg>
